HIERARCHY
ROOT Pelvis
{
	OFFSET 0.000000 0.000000 0.000000
	CHANNELS 6 Xposition Yposition Zposition Xrotation Yrotation Zrotation
	JOINT LeftUpLeg_virtual
	{
		OFFSET 0.000000 0.000000 0.000000
		CHANNELS 3 Xrotation Yrotation Zrotation
		JOINT LeftUpLeg
		{
			OFFSET 18.735201 -5.666702 -4.541200
			CHANNELS 3 Xrotation Yrotation Zrotation
			JOINT LeftLeg
			{
				OFFSET -0.021200 -31.938179 0.493100
				CHANNELS 3 Xrotation Yrotation Zrotation
				JOINT LeftFoot
				{
					OFFSET 0.021200 -31.938179 -4.336299
					CHANNELS 3 Xrotation Yrotation Zrotation
					JOINT LeftToeBase
					{
						OFFSET 0.943001 -26.722000 15.023500
						CHANNELS 3 Xrotation Yrotation Zrotation
						End Site
						{
							OFFSET 0 0 0
						}
					}
				}
			}
		}
	}
	JOINT RightUpLeg_virtual
	{
		OFFSET 0.000000 0.000000 0.000000
		CHANNELS 3 Xrotation Yrotation Zrotation
		JOINT RightUpLeg
		{
			OFFSET -18.735201 -5.666702 -4.541200
			CHANNELS 3 Xrotation Yrotation Zrotation
			JOINT RightLeg
			{
				OFFSET 0.018946 -31.938133 0.493100
				CHANNELS 3 Xrotation Yrotation Zrotation
				JOINT RightFoot
				{
					OFFSET -0.018946 -31.938126 -4.336299
					CHANNELS 3 Xrotation Yrotation Zrotation
					JOINT RightToeBase
					{
						OFFSET -0.943001 -26.722004 15.023500
						CHANNELS 3 Xrotation Yrotation Zrotation
						End Site
						{
							OFFSET 0 0 0
						}
					}
				}
			}
		}
	}
	JOINT Hips_virtual
	{
		OFFSET 0.000000 0.000000 0.000000
		CHANNELS 3 Xrotation Yrotation Zrotation
		JOINT Hips
		{
			OFFSET -0.000000 -0.000000 -0.000000
			CHANNELS 3 Xrotation Yrotation Zrotation
			JOINT Spine
			{
				OFFSET 0.000000 10.199997 -0.299500
				CHANNELS 3 Xrotation Yrotation Zrotation
				JOINT Spine1
				{
					OFFSET 0.000000 11.900002 -1.516600
					CHANNELS 3 Xrotation Yrotation Zrotation
					JOINT Spine2
					{
						OFFSET 0.000000 13.600006 -2.842500
						CHANNELS 3 Xrotation Yrotation Zrotation
						JOINT Neck_virtual
						{
							OFFSET 0.000000 0.000000 0.000000
							CHANNELS 3 Xrotation Yrotation Zrotation
							JOINT Neck
							{
								OFFSET 0.000000 9.624100 -2.890100
								CHANNELS 3 Xrotation Yrotation Zrotation
								JOINT Head
								{
									OFFSET 0.000000 14.068802 -1.351900
									CHANNELS 3 Xrotation Yrotation Zrotation
									End Site
									{
										OFFSET 0 0 0
									}
								}
							}
						}
						JOINT LeftShoulder_virtual
						{
							OFFSET 0.000000 0.000000 0.000000
							CHANNELS 3 Xrotation Yrotation Zrotation
							JOINT LeftShoulder
							{
								OFFSET 15.263000 10.923401 -0.547700
								CHANNELS 3 Xrotation Yrotation Zrotation
								JOINT LeftArm
								{
									OFFSET 25.438599 -2.830597 -13.032500
									CHANNELS 3 Xrotation Yrotation Zrotation
									JOINT LeftForeArm
									{
										OFFSET 29.960503 0.000000 0.000000
										CHANNELS 3 Xrotation Yrotation Zrotation
										JOINT LeftHand
										{
											OFFSET 27.849251 0.000000 0.000000
											CHANNELS 3 Xrotation Yrotation Zrotation
											End Site
											{
												OFFSET 0 0 0
											}
										}
									}
								}
							}
						}
						JOINT RightShoulder_virtual
						{
							OFFSET 0.000000 0.000000 0.000000
							CHANNELS 3 Xrotation Yrotation Zrotation
							JOINT RightShoulder
							{
								OFFSET -15.263000 10.923401 -0.547700
								CHANNELS 3 Xrotation Yrotation Zrotation
								JOINT RightArm
								{
									OFFSET -25.438599 -2.830597 -13.032500
									CHANNELS 3 Xrotation Yrotation Zrotation
									JOINT RightForeArm
									{
										OFFSET -29.960503 0.000000 0.000000
										CHANNELS 3 Xrotation Yrotation Zrotation
										JOINT RightHand
										{
											OFFSET -27.849251 0.000000 0.000000
											CHANNELS 3 Xrotation Yrotation Zrotation
											End Site
											{
												OFFSET 0 0 0
											}
										}
									}
								}
							}
						}
					}
				}
			}
		}
	}
}
MOTION
Frames: 13
Frame Time: 0.03333333
17.183746 12.729946 -6.599426 0.000000 0.000000 0.000000 -82.997057 55.048586 -4.469563 -89.311171 7.006420 -12.452482 75.741682 11.730897 5.457443 9.369934 -1.017434 8.986148 0.000000 0.000000 0.000000 -82.201129 57.926889 -5.144532 -47.538424 0.719345 4.785014 72.354776 -13.786506 4.696349 39.069567 -1.304813 -3.885598 0.000000 0.000000 0.000000 -81.834539 55.945608 -4.631493 0.098129 -0.444182 -0.155194 19.421633 -7.013686 -7.035324 8.692906 -4.137784 -3.762391 0.000000 0.000000 0.000000 9.006719 -5.315437 -4.134276 -1.934605 3.120019 -5.757468 0.000000 0.000000 0.000000 9.070066 -5.207119 -4.026435 5.221374 -8.824623 29.251484 -103.252161 26.421424 -41.406772 -0.716474 -23.997499 -1.601985 0.000000 0.000000 0.000000 10.213637 -4.880924 -4.303788 2.568326 9.127559 -13.036838 -35.781957 41.575611 90.728893 174.736361 71.734103 -172.885134 0.000000 0.000000 0.000000 
17.225552 12.656902 -6.676514 0.000000 0.000000 0.000000 -82.923189 54.975578 -4.504819 -89.283242 7.051064 -12.688720 75.913133 11.845596 5.395381 9.147789 -0.805812 9.097534 0.000000 0.000000 0.000000 -82.093492 57.828042 -5.231221 -47.536764 0.643862 4.868085 72.290736 -13.812199 4.691828 38.928991 -1.297566 -3.882313 0.000000 0.000000 0.000000 -81.703269 55.933584 -4.643659 0.107303 -0.379721 -0.207756 19.425835 -6.983080 -6.993839 8.692108 -4.104443 -3.757442 0.000000 0.000000 0.000000 8.985615 -5.303603 -4.143829 -1.959217 3.132042 -5.756003 0.000000 0.000000 0.000000 9.067290 -5.190907 -4.011225 5.229907 -8.841741 29.102002 -102.850430 26.681012 -41.738907 -0.674411 -24.150256 -1.670572 0.000000 0.000000 0.000000 10.203842 -4.833913 -4.268777 2.580589 9.420421 -13.014524 -35.916488 41.912964 90.849466 174.687183 71.930423 -172.927289 0.000000 0.000000 0.000000 
17.269024 12.576550 -6.790569 0.000000 0.000000 0.000000 -82.831255 54.849950 -4.479928 -89.316779 7.052216 -12.964691 76.360552 11.724196 5.445114 8.425307 -1.044190 9.008835 0.000000 0.000000 0.000000 -82.060338 57.640786 -5.210166 -47.692154 0.358370 4.852019 72.311834 -13.760616 4.807523 38.913633 -1.303954 -3.794740 0.000000 0.000000 0.000000 -81.638540 55.877241 -4.526176 0.086247 -0.346486 -0.275239 19.323426 -7.031400 -6.946386 8.656879 -4.037639 -3.724748 0.000000 0.000000 0.000000 8.952531 -5.248125 -4.129100 -1.969712 3.108943 -5.752467 0.000000 0.000000 0.000000 9.034772 -5.135890 -3.969652 5.196682 -8.797196 28.848100 -102.235084 26.990968 -42.191369 -0.701943 -24.358890 -1.762011 0.000000 0.000000 0.000000 10.173662 -4.772059 -4.211201 2.645752 9.792797 -13.043658 -35.883423 42.649972 90.777804 174.740896 71.952204 -173.099260 0.000000 0.000000 0.000000 
17.315266 12.533413 -6.904881 0.000000 0.000000 0.000000 -82.753793 54.704549 -4.407859 -89.364535 6.971630 -13.223996 76.856103 11.400402 5.568477 7.433042 -1.695229 8.688739 0.000000 0.000000 0.000000 -82.073534 57.438510 -5.090780 -47.926399 0.002108 4.777655 72.226033 -13.707003 4.923919 38.979094 -1.346313 -3.669515 0.000000 0.000000 0.000000 -81.627925 55.771257 -4.354285 0.083046 -0.342609 -0.283976 19.134423 -7.155262 -6.875681 8.592639 -3.975322 -3.663177 0.000000 0.000000 0.000000 8.909642 -5.186723 -4.081547 -1.956297 3.049010 -5.736554 0.000000 0.000000 0.000000 8.954247 -5.071990 -3.919573 5.125546 -8.710334 28.478788 -101.586544 27.185802 -42.616976 -0.762160 -24.530785 -1.817930 0.000000 0.000000 0.000000 10.102032 -4.716480 -4.154752 2.735378 10.128266 -13.199859 -35.822365 43.425776 90.770332 174.816930 71.900281 -173.300901 0.000000 0.000000 0.000000 
17.356281 12.553616 -6.974091 0.000000 0.000000 0.000000 -82.697369 54.575718 -4.326725 -89.484774 6.874561 -13.308284 77.262956 11.060750 5.584837 6.598136 -2.484027 8.309794 0.000000 0.000000 0.000000 -82.117452 57.288236 -4.893108 -48.098892 -0.256370 4.712269 71.873951 -13.717264 4.933307 38.843228 -1.399531 -3.426109 0.000000 0.000000 0.000000 -81.683195 55.649735 -4.167576 0.113212 -0.358577 -0.252043 18.914310 -7.339842 -6.767842 8.507472 -3.948283 -3.593636 0.000000 0.000000 0.000000 8.863414 -5.155495 -4.009972 -1.918129 2.961266 -5.703381 0.000000 0.000000 0.000000 8.828225 -5.036375 -3.886280 5.026769 -8.615344 27.999058 -100.946528 27.099918 -42.952048 -0.833209 -24.508252 -1.813981 0.000000 0.000000 0.000000 9.965249 -4.697557 -4.119557 2.824467 10.352662 -13.513072 -35.953054 43.920452 91.069153 174.875929 71.816912 -173.480685 0.000000 0.000000 0.000000 
17.362354 12.604706 -6.994652 0.000000 0.000000 0.000000 -82.707498 54.574762 -4.212270 -89.813695 6.837836 -13.134803 77.647073 10.905869 5.371432 6.132065 -3.088477 8.189084 0.000000 0.000000 0.000000 -82.199373 57.273650 -4.633956 -48.158656 -0.335673 4.624950 71.386637 -13.762673 4.838629 38.325827 -1.396483 -2.929037 0.000000 0.000000 0.000000 -81.749387 55.591289 -4.010553 0.167219 -0.412542 -0.217992 18.726191 -7.555320 -6.637580 8.416928 -3.990842 -3.534225 0.000000 0.000000 0.000000 8.821087 -5.178957 -3.929245 -1.865483 2.858769 -5.651567 0.000000 0.000000 0.000000 8.656888 -5.066266 -3.879148 4.926946 -8.577149 27.416296 -100.376207 26.663385 -43.116061 -0.854692 -24.262271 -1.714519 0.000000 0.000000 0.000000 9.765100 -4.732967 -4.111944 2.882071 10.457726 -13.889024 -36.381771 43.935434 91.865286 174.935638 71.739690 -173.644077 0.000000 0.000000 0.000000 
17.345501 12.646439 -6.986115 0.000000 0.000000 0.000000 -82.888806 54.804680 -3.999580 -90.304212 6.918542 -12.756826 78.060162 10.999966 4.985850 5.979253 -3.356807 8.491965 0.000000 0.000000 0.000000 -82.400078 57.470024 -4.277586 -48.145040 -0.291269 4.476039 71.046760 -13.793980 4.753687 37.519834 -1.364925 -2.099309 0.000000 0.000000 0.000000 -81.856375 55.696767 -3.887861 0.207617 -0.458949 -0.177364 18.599969 -7.770153 -6.522808 8.344502 -4.080784 -3.496609 0.000000 0.000000 0.000000 8.792737 -5.256024 -3.847799 -1.806993 2.770411 -5.604135 0.000000 0.000000 0.000000 8.464104 -5.147419 -3.896287 4.812235 -8.609451 26.710870 -99.807328 25.914708 -43.138819 -0.816913 -23.883140 -1.587810 0.000000 0.000000 0.000000 9.559594 -4.809550 -4.127572 2.918992 10.536263 -14.173735 -36.792293 43.515381 92.837379 175.051519 71.577329 -173.825992 0.000000 0.000000 0.000000 
17.320332 12.670132 -6.984196 0.000000 0.000000 0.000000 -83.338772 55.325526 -3.602598 -90.775236 7.095686 -12.309907 78.311978 11.285030 4.564434 5.871568 -3.381723 9.048098 0.000000 0.000000 0.000000 -82.840182 57.959230 -3.759726 -48.096416 -0.237590 4.250467 70.977550 -13.777498 4.798636 36.604725 -1.306843 -0.858310 0.000000 0.000000 0.000000 -81.999092 55.996725 -3.839252 0.241174 -0.451289 -0.155928 18.544126 -7.958337 -6.464008 8.283417 -4.177277 -3.477664 0.000000 0.000000 0.000000 8.765462 -5.351075 -3.777789 -1.753729 2.715963 -5.588534 0.000000 0.000000 0.000000 8.291094 -5.247423 -3.906970 4.693397 -8.694870 26.002660 -99.204768 24.998151 -43.077317 -0.728442 -23.662357 -1.461790 0.000000 0.000000 0.000000 9.403675 -4.900780 -4.140756 2.939277 10.654080 -14.188854 -36.752787 42.897392 93.453052 175.329904 71.317475 -174.103434 0.000000 0.000000 0.000000 
17.301598 12.708061 -7.010582 0.000000 0.000000 0.000000 -84.121074 56.118456 -2.931134 -91.038751 7.315609 -11.971338 78.275211 11.660413 4.261288 5.478894 -3.325522 9.677627 0.000000 0.000000 0.000000 -83.557310 58.689083 -3.120666 -48.042383 -0.194278 3.970658 71.141399 -13.656494 4.956197 35.852131 -1.126304 0.822824 0.000000 0.000000 0.000000 -82.237335 56.464026 -3.823298 0.281550 -0.390165 -0.122283 18.539468 -8.093343 -6.468403 8.229342 -4.247908 -3.453651 0.000000 0.000000 0.000000 8.694047 -5.422632 -3.710975 -1.712192 2.714876 -5.637239 0.000000 0.000000 0.000000 8.165261 -5.320752 -3.869951 4.572099 -8.834945 25.403231 -98.591424 24.161372 -42.973269 -0.575537 -23.843250 -1.358925 0.000000 0.000000 0.000000 9.317128 -4.966917 -4.129981 2.946487 10.827408 -13.874634 -36.169817 42.277723 93.474445 175.791803 70.989380 -174.505883 0.000000 0.000000 0.000000 
17.322807 12.808315 -7.013718 0.000000 0.000000 0.000000 -85.245112 57.060275 -2.005620 -91.031136 7.563218 -11.846116 77.975659 12.095903 4.083715 4.837443 -3.223464 10.320332 0.000000 0.000000 0.000000 -84.590896 59.565083 -2.326950 -47.920126 -0.075206 3.721193 71.362069 -13.409703 5.107230 35.460662 -0.729763 2.948302 0.000000 0.000000 0.000000 -82.724239 57.045808 -3.719868 0.301829 -0.330533 -0.057378 18.567577 -8.156834 -6.514675 8.184135 -4.257862 -3.416197 0.000000 0.000000 0.000000 8.563971 -5.439450 -3.641772 -1.686848 2.771875 -5.772280 0.000000 0.000000 0.000000 8.104200 -5.331606 -3.773616 4.444521 -8.976393 24.999761 -97.978674 23.628855 -42.983620 -0.408897 -24.349992 -1.254396 0.000000 0.000000 0.000000 9.277623 -4.981793 -4.083678 2.938040 11.028129 -13.325168 -35.188216 41.738852 92.839865 176.359774 70.497579 -174.977726 0.000000 0.000000 0.000000 
17.376179 12.967522 -7.061539 0.000000 0.000000 0.000000 -86.611156 58.000737 -0.918994 -90.859705 7.848330 -11.942768 77.500012 12.655319 3.889071 4.220170 -2.967350 11.018915 0.000000 0.000000 0.000000 -85.889376 60.488169 -1.357389 -47.643974 0.158951 3.510631 71.508939 -13.061213 5.140713 35.112213 -0.118683 5.405677 0.000000 0.000000 0.000000 -83.524894 57.670012 -3.403718 0.322780 -0.251201 0.007505 18.615505 -8.154886 -6.555987 8.142394 -4.218806 -3.356324 0.000000 0.000000 0.000000 8.378716 -5.392356 -3.572301 -1.679264 2.883859 -5.994266 0.000000 0.000000 0.000000 8.087572 -5.278642 -3.618724 4.304231 -9.074339 24.769980 -97.395479 23.426058 -43.217581 -0.243010 -25.021445 -1.048101 0.000000 0.000000 0.000000 9.231698 -4.941942 -3.993694 2.899383 11.161893 -12.705900 -34.248621 41.242574 91.959563 176.948372 69.744052 -175.497899 0.000000 0.000000 0.000000 
17.485538 13.162746 -7.124886 0.000000 0.000000 0.000000 -88.032300 58.783436 0.212227 -90.628919 8.176992 -12.268158 76.875295 13.342550 3.675329 3.835985 -2.516412 11.781357 0.000000 0.000000 0.000000 -87.249137 61.311617 -0.320446 -47.128131 0.503127 3.315360 71.643760 -12.626618 5.050178 34.232959 0.479475 7.917215 0.000000 0.000000 0.000000 -84.602985 58.268665 -2.776687 0.299367 -0.220311 0.088895 18.690107 -8.112590 -6.556670 8.111551 -4.156621 -3.275108 0.000000 0.000000 0.000000 8.169985 -5.302037 -3.506757 -1.687181 3.038692 -6.282706 0.000000 0.000000 0.000000 8.118197 -5.180665 -3.436820 4.125853 -9.099070 24.567984 -96.469831 23.335551 -43.939901 -0.091033 -25.598963 -0.729994 0.000000 0.000000 0.000000 9.158148 -4.860691 -3.873847 2.839229 11.179406 -12.239618 -33.591775 40.743093 91.186222 177.469242 68.632514 -176.025955 0.000000 0.000000 0.000000 
17.620762 13.348515 -7.194798 0.000000 0.000000 0.000000 -89.423022 59.371843 1.350731 -90.449436 8.453425 -12.820511 76.221564 14.116793 3.502263 3.882011 -1.849268 12.615657 0.000000 0.000000 0.000000 -88.670472 62.019354 0.884036 -46.274511 0.867107 3.066071 71.852163 -12.137135 4.891006 32.355846 0.778597 10.243032 0.000000 0.000000 0.000000 -85.909204 58.844539 -1.748008 0.221039 -0.192217 0.153628 18.765475 -8.074733 -6.540853 8.090104 -4.096712 -3.192973 0.000000 0.000000 0.000000 8.003679 -5.201210 -3.448844 -1.695030 3.199930 -6.576609 0.000000 0.000000 0.000000 8.171381 -5.075696 -3.268603 3.913895 -8.994169 24.221804 -94.660582 22.867011 -45.276289 0.023035 -26.242700 -0.267853 0.000000 0.000000 0.000000 9.043798 -4.775233 -3.736632 2.803467 11.073161 -12.065375 -33.204975 40.258139 90.734070 177.813347 67.250111 -176.472595 0.000000 0.000000 0.000000 
